HIERARCHY
ROOT RootJoint
{
    OFFSET   0.000000   0.000000   0.000000
    CHANNELS 6 Xposition Yposition Zposition Xrotation Yrotation Zrotation
    JOINT pelvis_lowerback
    {
        OFFSET   0.000000   0.093605   0.000000
        CHANNELS 3 Xrotation Yrotation Zrotation
        JOINT lowerback_torso
        {
            OFFSET   0.000000   0.100000   0.000000
            CHANNELS 3 Xrotation Yrotation Zrotation
            JOINT torso_head
            {
                OFFSET   0.000000   0.282350   0.000000
                CHANNELS 3 Xrotation Yrotation Zrotation
                End Site
                {
                    OFFSET   0.000000   0.192650   0.000000
                }
            }
            JOINT rTorso_Clavicle
            {
                OFFSET  -0.001000   0.157500   0.000000
                CHANNELS 3 Xrotation Yrotation Zrotation
                JOINT rShoulder
                {
                    OFFSET  -0.117647   0.000000   0.000000
                    CHANNELS 3 Xrotation Yrotation Zrotation
                    JOINT rElbow
                    {
                        OFFSET  -0.245000   0.000000   0.000000
                        CHANNELS 3 Xrotation Yrotation Zrotation
                        JOINT rWrist
                        {
                            OFFSET  -0.240000   0.000000   0.000000
                            CHANNELS 3 Xrotation Yrotation Zrotation
                            End Site
                            {
                                OFFSET  -0.116353  -0.002500   0.000000
                            }
                        }
                    }
                }
            }
            JOINT lTorso_Clavicle
            {
                OFFSET   0.001000   0.157500   0.000000
                CHANNELS 3 Xrotation Yrotation Zrotation
                JOINT lShoulder
                {
                    OFFSET   0.117647   0.000000   0.000000
                    CHANNELS 3 Xrotation Yrotation Zrotation
                    JOINT lElbow
                    {
                        OFFSET   0.245000   0.000000   0.000000
                        CHANNELS 3 Xrotation Yrotation Zrotation
                        JOINT lWrist
                        {
                            OFFSET   0.240000   0.000000   0.000000
                            CHANNELS 3 Xrotation Yrotation Zrotation
                            End Site
                            {
                                OFFSET   0.116353  -0.002500   0.000000
                            }
                        }
                    }
                }
            }
        }
    }
    JOINT rHip
    {
        OFFSET  -0.100000  -0.051395   0.000000
        CHANNELS 3 Xrotation Yrotation Zrotation
        JOINT rKnee
        {
            OFFSET   0.000000  -0.410000   0.000000
            CHANNELS 3 Xrotation Yrotation Zrotation
            JOINT rAnkle
            {
                OFFSET   0.000000  -0.390000   0.000000
                CHANNELS 3 Xrotation Yrotation Zrotation
                JOINT rToeJoint
                {
                    OFFSET   0.000000  -0.050000   0.130000
                    CHANNELS 3 Xrotation Yrotation Zrotation
                    End Site
                    {
                        OFFSET  -0.010000   0.002000   0.060000
                    }
                }
            }
        }
    }
    JOINT lHip
    {
        OFFSET   0.100000  -0.051395   0.000000
        CHANNELS 3 Xrotation Yrotation Zrotation
        JOINT lKnee
        {
            OFFSET   0.000000  -0.410000   0.000000
            CHANNELS 3 Xrotation Yrotation Zrotation
            JOINT lAnkle
            {
                OFFSET   0.000000  -0.390000   0.000000
                CHANNELS 3 Xrotation Yrotation Zrotation
                JOINT lToeJoint
                {
                    OFFSET   0.000000  -0.050000   0.130000
                    CHANNELS 3 Xrotation Yrotation Zrotation
                    End Site
                    {
                        OFFSET   0.010000   0.002000   0.060000
                    }
                }
            }
        }
    }
}
MOTION
Frames: 15
Frame Time:   0.008333
 -2.724406   0.926659   5.461102  -0.982162 -10.927594  -0.774411   5.361848  -4.220639  -1.613401   7.592385  -6.444123   2.032258   0.898485  -1.296585   1.240336   8.197229  -3.566829   2.269520  19.111168   8.481099  53.310415  -0.002303  25.163781  -0.030952   1.196442   1.877518   0.061663   2.715324  -3.615908  -3.467176   0.774889 -14.061987 -51.551851  -0.003142 -42.511892   0.045559   1.473480  -6.617599   1.263369 -26.704683  -7.109504  -6.152587  38.462104   0.001221  -0.063881  -6.304220 -15.390890   2.066621  -6.465313  -0.012608  -0.000269   7.490857  -6.396391  -1.936280   7.648509  -0.000977  -0.017159  -3.833874   1.317537   1.167567 -16.031385  -0.013378  -0.016056
 -2.728719   0.927618   5.473449  -0.940546 -10.292113  -0.733350   5.456733  -4.698213  -1.579375   7.498524  -6.750498   2.100677   0.944528  -1.114885   1.086479   8.419984  -4.082776   2.180695  19.707472   7.672277  53.239896  -0.001458  24.187414  -0.031078   1.306359   1.844594   0.284372   2.575326  -4.090585  -3.204573  -0.114877 -14.929397 -51.290405  -0.004095 -43.913078   0.047775   1.550305  -6.612856   1.175919 -27.177122  -7.245675  -6.270011  35.062117   0.003772  -0.064220  -6.471847 -15.496009   2.223436  -6.261899  -0.012400   0.000519   8.295559  -6.410646  -1.747702   7.512109  -0.000774  -0.014500  -3.389869   0.992249   0.929453 -16.656863  -0.011184  -0.014920
 -2.733129   0.927918   5.485943  -0.908418  -9.681498  -0.686485   5.517689  -5.153947  -1.567706   7.395316  -7.054023   2.149364   0.984298  -0.939416   0.937039   8.658368  -4.596429   2.070574  20.296104   6.884833  53.158707  -0.000372  23.255144  -0.030956   1.408727   1.722996   0.462654   2.414623  -4.543776  -2.921989  -0.971319 -15.755560 -51.033581  -0.005349 -45.243754   0.048108   1.630379  -6.726450   1.116795 -27.639550  -7.347183  -6.444273  31.795666   0.005038  -0.063104  -6.631304 -15.592137   2.369826  -6.067699  -0.012007   0.001115   9.103805  -6.394431  -1.564776   7.432444  -0.000612  -0.012054  -3.022484   0.715271   0.726378 -17.758987  -0.009423  -0.015995
 -2.737665   0.927634   5.498561  -0.882179  -9.098103  -0.644839   5.551938  -5.595274  -1.572450   7.282320  -7.356843   2.184237   1.019022  -0.775010   0.796398   8.897281  -5.093586   1.949754  20.862253   6.132550  53.076402   0.000686  22.375147  -0.030572   1.507186   1.546855   0.606348   2.247863  -4.973969  -2.640813  -1.784522 -16.533702 -50.789596  -0.006268 -46.491726   0.047169   1.709580  -6.882526   1.104451 -28.109058  -7.425197  -6.649863  28.724323   0.005605  -0.060849  -6.781133 -15.681988   2.506187  -5.892285  -0.011382   0.001520   9.924083  -6.363896  -1.365627   7.385907  -0.000478  -0.009902  -2.719904   0.468612   0.549424 -19.258765  -0.007643  -0.018404
 -2.742332   0.926836   5.511286  -0.858398  -8.542254  -0.609747   5.563942  -6.021210  -1.591831   7.161807  -7.655306   2.207079   1.048879  -0.621796   0.664612   9.128997  -5.568518   1.828657  21.399228   5.420511  52.999141   0.001566  21.548605  -0.029890   1.601782   1.345878   0.726043   2.083266  -5.381338  -2.372099  -2.551796 -17.265600 -50.564904  -0.006687 -47.659305   0.045354   1.786886  -7.051787   1.119036 -28.585342  -7.485221  -6.874369  25.849857   0.005777  -0.057860  -6.921444 -15.765971   2.633334  -5.735367  -0.010605   0.001771  10.753534  -6.323613  -1.146065   7.365257  -0.000369  -0.008033  -2.472101   0.247061   0.394242 -21.064857  -0.005549  -0.021391
 -2.747126   0.925588   5.524104  -0.833599  -8.012489  -0.579431   5.557109  -6.429663  -1.624894   7.035756  -7.946041   2.218659   1.074313  -0.479173   0.541001   9.349497  -6.018532   1.714111  21.904232   4.750794  52.930885   0.002211  20.774720  -0.028904   1.692587   1.138190   0.831554   1.925715  -5.766467  -2.121904  -3.272932 -17.953823 -50.363112  -0.006644 -48.750725   0.042927   1.861679  -7.224646   1.142798 -29.064862  -7.530582  -7.111093  23.162525   0.005720  -0.054464  -7.052740 -15.844433   2.751942  -5.595345  -0.009748   0.001902  11.586491  -6.274981  -0.907238   7.367162  -0.000284  -0.006417  -2.269938   0.048078   0.257672 -23.095267  -0.003013  -0.024422
 -2.752041   0.923945   5.537003  -0.804456  -7.506618  -0.551486   5.534227  -6.818914  -1.670486   6.905809  -8.226516   2.219787   1.095795  -0.346417   0.424833   9.556614  -6.442545   1.610084  22.376442   4.123724  52.873677   0.002625  20.051734  -0.027641   1.779714   0.934694   0.930337   1.778250  -6.129935  -1.893109  -3.948743 -18.600746 -50.185493  -0.006250 -49.770471   0.040092   1.933597  -7.397344   1.164207 -29.543564  -7.563692  -7.355669  20.650976   0.005543  -0.050896  -7.175577 -15.917715   2.862601  -5.470539  -0.008864   0.001947  12.417146  -6.218604  -0.651620   7.389186  -0.000222  -0.005024  -2.105478  -0.130182   0.137148 -25.279451  -0.000042  -0.027143
 -2.756991   0.921864   5.549844  -0.792422  -7.004368  -0.441080   5.564640  -7.171084  -1.756671   6.741503  -8.434240   2.124140   1.027954  -0.137061   0.344413   9.752641  -6.941728   1.528318  22.783998   3.361409  52.868032   0.003333  19.345273  -0.027409   1.846377   0.884019   1.083343   1.698848  -6.494159  -1.565289  -4.691417 -19.241538 -50.026492  -0.007055 -50.911207   0.037294   2.026111  -7.409379   1.119357 -30.165566  -7.582100  -7.700784  18.900721   0.005410  -0.045055  -7.312233 -15.852304   3.050823  -5.225795  -0.009063   0.002476  13.130424  -6.153400  -0.482234   7.653424  -0.000213  -0.002652  -2.011261  -0.334227   0.070450 -27.610556   0.003815  -0.029077
 -2.762073   0.919671   5.562838  -0.790205  -6.597287  -0.290715   5.577508  -7.466302  -1.885480   6.583705  -8.609467   1.993930   0.962467   0.066318   0.261873   9.952873  -7.426584   1.451896  23.182074   2.632673  52.862227   0.003837  18.674125  -0.026804   1.906308   0.795166   1.209446   1.619438  -6.823791  -1.250053  -5.389808 -19.837862 -49.873228  -0.007744 -51.983446   0.034074   2.117568  -7.465439   1.109850 -30.738440  -7.594698  -8.020935  17.353935   0.005719  -0.038683  -7.434362 -15.790313   3.227400  -4.996924  -0.008969   0.002648  13.850690  -6.149044  -0.330013   7.940386  -0.000342  -0.000986  -2.046127  -0.585646   0.076191 -29.062598   0.005852  -0.024889
 -2.767246   0.917323   5.575931  -0.767651  -6.240446  -0.132241   5.566160  -7.738774  -2.015963   6.422370  -8.771377   1.853835   0.898848   0.256939   0.181293  10.148995  -7.889097   1.365942  23.563752   1.942921  52.852796   0.004147  18.042949  -0.025871   1.964016   0.682903   1.316914   1.547363  -7.125514  -0.951272  -6.041920 -20.393780 -49.735262  -0.007975 -52.986185   0.031022   2.205561  -7.535698   1.118969 -31.261704  -7.611820  -8.297942  15.931049   0.006141  -0.032865  -7.547563 -15.732650   3.392422  -4.788924  -0.008647   0.002639  14.550333  -6.139785  -0.178075   8.256294  -0.000500   0.000349  -2.022452  -0.816819   0.053370 -30.653994   0.007303  -0.021456
 -2.772488   0.914794   5.589079  -0.716031  -5.903657   0.031136   5.535786  -8.000021  -2.143428   6.257529  -8.928237   1.715260   0.836440   0.434564   0.105665  10.337429  -8.327833   1.275902  23.926161   1.292914  52.842458   0.004267  17.451258  -0.024626   2.019247   0.561108   1.409087   1.481208  -7.406304  -0.669295  -6.651890 -20.914170 -49.612149  -0.007807 -53.923632   0.028226   2.290139  -7.611931   1.132547 -31.739385  -7.631053  -8.542175  14.613550   0.006515  -0.027939  -7.653208 -15.678884   3.546475  -4.600839  -0.008173   0.002552  15.217844  -6.113974  -0.023359   8.577167  -0.000636   0.001429  -1.966054  -1.016890   0.016500 -32.302315   0.008542  -0.019143
 -2.777783   0.912064   5.602251  -0.632178  -5.574048   0.199865   5.490914  -8.251561  -2.266501   6.091177  -9.081583   1.582225   0.775738   0.599999   0.035225  10.516438  -8.742603   1.187283  24.268208   0.682469  52.834370   0.004223  16.897639  -0.023113   2.072054   0.437600   1.492180   1.419736  -7.669552  -0.403901  -7.223356 -21.402285 -49.502820  -0.007349 -54.800209   0.025670   2.371432  -7.693020   1.145651 -32.175277  -7.650566  -8.761541  13.392103   0.006800  -0.023883  -7.751894 -15.628686   3.690225  -4.430610  -0.007608   0.002429  15.850378  -6.072945   0.134523   8.897258  -0.000741   0.002315  -1.888478  -1.188474  -0.027654 -33.979818   0.009746  -0.017783
 -2.783116   0.909126   5.615429  -0.514535  -5.246710   0.376446   5.434751  -8.492447  -2.385621   5.925014  -9.230578   1.455857   0.717224   0.754153  -0.030451  10.684889  -9.133569   1.104200  24.589458   0.110852  52.830656   0.004055  16.380387  -0.021399   2.122578   0.317052   1.571585   1.362799  -7.916556  -0.154950  -7.758669 -21.860106 -49.406071  -0.006690 -55.619751   0.023328   2.449550  -7.777987   1.156857 -32.572702  -7.669531  -8.962217  12.259076   0.006997  -0.020566  -7.844064 -15.581799   3.824337  -4.276224  -0.007000   0.002288  16.447741  -6.019398   0.293594   9.211297  -0.000817   0.003031  -1.800952  -1.335105  -0.075020 -35.638967   0.010937  -0.017063
 -2.788731   0.906653   5.629001  -0.532854  -5.016389   0.467802   5.480782  -8.777117  -2.420554   5.815453  -9.269857   1.314695   0.619988   0.903795  -0.082290  10.805732  -9.553605   1.009373  24.663367  -0.562107  52.817113   0.004214  15.800163  -0.021834   2.136025   0.249526   1.645107   1.330732  -8.089065   0.046455  -8.249540 -22.149355 -49.413875  -0.006082 -56.413926   0.020071   2.561820  -7.851180   1.259890 -32.893789  -7.704281  -8.976509  12.133426   0.005862  -0.016560  -7.809584 -15.451367   3.822623  -3.994397  -0.006440   0.002365  17.131590  -6.025880   0.516948   9.645599  -0.001146   0.003422  -1.295438  -1.405504  -0.047463 -38.042267   0.014016  -0.014728
 -2.794537   0.904201   5.642716  -0.532590  -4.771520   0.492716   5.505203  -9.058373  -2.391459   5.721663  -9.299558   1.206113   0.528416   1.041662  -0.124876  10.923270  -9.957715   0.890479  24.738338  -1.200375  52.792857   0.004293  15.256966  -0.021577   2.138358   0.183740   1.685342   1.331848  -8.227214   0.229348  -8.685777 -22.410386 -49.442259  -0.005307 -57.154695   0.017323   2.665971  -7.912167   1.344711 -33.088170  -7.770349  -8.860792  12.204443   0.004500  -0.013159  -7.765122 -15.331057   3.822509  -3.716832  -0.005900   0.002445  17.739590  -6.037077   0.828379  10.166002  -0.001604   0.003897  -0.483197  -1.469375  -0.085565 -41.558413   0.017527  -0.013943
